#!OML:ASF F:\VICON\USERDATA\INSTALL\rory3\rory3.ASF
:FULLY-SPECIFIED
:DEGREES
78
root -0.2397943485981348 18.06379269079509 26.50273384245159 -3.901676424319292 -1.6170311721233315 -5.946952229650795
lfemur -19.79447133052131 3.4808729192578 -12.699569256431005
ltibia 67.81610537132278
lfoot -5.634634112289641 -3.71333966718484
ltoes -5.803329319921987
rfemur -5.952016342269336 5.813872837320386 33.16285647423675
rtibia 28.641683997842588
rfoot -14.92210663405076 -4.50452711330567
rtoes 7.20670791017457
lowerback nan 0.9934028096310346 4.037256363871883
upperback 0.6881537299761447 1.8971380978450214 2.320131644327438
thorax -4.6538766115236605 0.9156853679759143 -0.0751270616139289
lowerneck -16.20814589624253 -2.5905566113201255 -1.8897903421792304
upperneck 19.904522458629035 -3.3675574283685528 1.3432454923720134
head 9.039051329650995 -1.5796720148135013 0.35722152561121867
lclavicle -1.386801293530348e-15 1.320537021602296e-16
lhumerus -32.35355189368579 -0.6598649542366406 84.67237619114384
lradius 26.754738161597054
lwrist 5.548715094499671
lhand -26.86740434442945 23.435331458036075
lfingers nan
lthumb -0.25118156012665366 53.585621280682695
rclavicle -1.4327630172719305e-15 1.244775062847695e-16
rhumerus -27.18009950966426 -15.881183536985537 -80.02269347276366
rradius 25.096944466568747
rwrist 3.9096005523596515
rhand -17.544125658931453 nan
rfingers nan
rthumb 8.652548404182337 -7.1969820724909965
79
root -0.25383732224218397 18.062396767637495 26.788833172531795 -3.4061566632715072 -2.2083569841784545 -6.514759069373323
lfemur -22.822143468133667 3.8095294215864084 -12.295769859543299
ltibia 63.237221495186745
lfoot -6.95977658306216 0.10829842610716889
ltoes -5.36017762368143
rfemur -4.33207232608817 5.761778734607187 33.83966628169292
rtibia 29.324921965098184
rfoot -15.819282506443841 -3.9485198570196456
rtoes 7.500344229181273
lowerback nan 1.2845109176700436 4.877834369593783
upperback 0.5821877517519108 2.4747281429629466 2.2635477535353683
thorax -4.75095305477615 1.191585855524032 -0.6337093863884055
lowerneck -16.2607389596014 -2.6234535475178395 -1.8180251237031813
upperneck 19.741966986846794 -3.4301459622354393 1.3747959746607505
head 8.986995297303864 -1.599636901103984 0.3517683427454358
lclavicle -1.2620596331994545e-15 2.202978814330488e-16
lhumerus -33.23863517614453 0.029563369137090567 84.50629777208144
lradius 26.096096277234906
lwrist 5.255919265595404
lhand -26.89426104132252 23.25123653738101
lfingers nan
lthumb -0.17393325127350778 53.678274165850816
rclavicle -1.3487657919739877e-15 1.7830706430974323e-16
rhumerus -26.56573039495712 -14.490239097345018 -80.34244243242668
rradius 25.776785964903688
rwrist 3.119638326260586
rhand -17.656802013016797 nan
rfingers nan
rthumb 8.551870022873361 -6.924623327920127
80
root -0.2600531859213852 18.01837226648452 27.394064629911384 -2.7701424064937887 -2.974351925041538 -7.282952971877732
lfemur -25.11193302119498 3.309429666866619 -11.527049434952481
ltibia 56.141851612044015
lfoot -7.211507112403446 3.837773405408325
ltoes -4.804511723060584
rfemur -2.2914707536941883 5.78636528976239 34.70919349713977
rtibia 29.215825599314687
rfoot -15.949685113075676 -3.754842039748081
rtoes 7.602526308568427
lowerback nan 1.5822435185517838 5.853505996008438
upperback 0.4526095809992734 3.02398061370459 2.280150476596482
thorax -4.8433130724674065 1.4549274264145982 -1.2049155636961468
lowerneck -16.33696070455435 -2.65694392340815 -1.7497360575173402
upperneck 19.582848177152613 -3.494607331212923 1.4142650776321237
head 8.935832252550563 -1.619867085224623 0.3483701491304009
lclavicle -1.3090891261927355e-15 1.7442010815902738e-16
lhumerus -34.0252444694826 0.8918616239763764 84.24340074761005
lradius 25.290051969731874
lwrist 4.800602050639505
lhand -26.929876519587555 23.024944939925827
lfingers nan
lthumb -0.11692985358447228 53.70350766932087
rclavicle -1.401532047828093e-15 1.202259716730467e-16
rhumerus -25.962735222411055 -13.371300292473581 -80.54629710130023
rradius 26.327653003923068
rwrist 2.561997099116463
rhand -17.748857119133344 nan
rfingers nan
rthumb 8.43159163485955 -6.760944887185215
81
root -0.254587790472898 17.952231858339943 28.24361970237012 -2.0105638694917696 -3.8430802550207113 -8.127337484041881
lfemur -26.118286627358167 1.94775778496196 -10.143587986965374
ltibia 46.15511939381051
lfoot -7.036151686230649 4.929940459572366
ltoes -4.950466794648584
rfemur -0.3158233331170148 5.848382670463131 35.49272397435318
rtibia 28.746265779369185
rfoot -15.757323813395622 -3.867776497267881
rtoes 7.267590526839598
lowerback nan 1.865390181211633 6.7633949630026935
upperback 0.3485486265528695 3.4929991777937857 2.335494539474447
thorax -4.8888223643382265 1.6769679962556514 -1.672778020358046
lowerneck -16.420857051043544 -2.6930083885301617 -1.6966015668320622
upperneck 19.445554675405493 -3.5639252513966637 1.4662636116793109
head 8.889272720204518 -1.6418254961938192 0.34899597368140467
lclavicle -1.2567022263707627e-15 2.0930010432960357e-16
lhumerus -34.7213876635228 1.8849192398052408 83.88913666122153
lradius 24.32382253467043
lwrist 4.194061406186825
lhand -27.027546755609787 22.673208989013716
lfingers nan
lthumb -0.1456918140130335 53.54955682040481
rclavicle -1.4377478923768735e-15 9.450778796562913e-17
rhumerus -25.36873779644476 -12.500111831829557 -80.66797408898037
rradius 26.70853013094598
rwrist 2.2254781934598005
rhand -17.828855679331095 nan
rfingers nan
rthumb 8.305785811432413 -6.656228074178614
82
root -0.23690496879171014 17.873171630329683 29.10687209035683 -1.1832286326775157 -4.753017947234467 -8.837715126818598
lfemur -25.94000903076373 -0.5307851317216161 -8.360774016672153
ltibia 33.642510343578735
lfoot -5.457143615708892 4.855512806021855
ltoes -5.849836241953583
rfemur 2.1849360286297195 6.0020401448418825 36.08043057788096
rtibia 27.205798821359792
rfoot -15.754502615810205 -4.361189671070766
rtoes 6.330944872218211
lowerback nan 2.110662926420671 7.374736102065508
upperback 0.31771440791936045 3.8374556428869617 2.3791786913467305
thorax -4.84357634845227 1.8450777405010292 -1.9519380152323866
lowerneck -16.493117900612244 -2.7315882872208053 -1.6556973534516053
upperneck 19.33878182251879 -3.638345217880402 1.5318477607575307
head 8.849440101451304 -1.6658109878897962 0.3551291805727315
lclavicle -1.139819203136095e-15 3.071713886460477e-16
lhumerus -35.3105348075755 2.965350426653396 83.46002318879272
lradius 23.210253826075856
lwrist 3.4816751477052703
lhand -27.173777209202818 22.28259319592683
lfingers nan
lthumb -0.2845599292893201 53.218940259962245
rclavicle -1.4114914230625467e-15 1.2256418877658264e-16
rhumerus -24.83649044266186 -11.896634312302371 -80.74083285474823
rradius 26.93427088590428
rwrist 2.0870604078671056
rhand -17.890706625820652 nan
rfingers nan
rthumb 8.191744005531362 -6.593920855965379
